<svg xmlns="http://www.w3.org/2000/svg" viewBox="0 0 64 64" role="img" aria-label="Aerial cultivation pattern favicon">
  <defs>
    <linearGradient id="ground" x1="0" y1="0" x2="0" y2="1">
      <stop offset="0%" stop-color="#d8efd9"/>
      <stop offset="100%" stop-color="#a7d7ac"/>
    </linearGradient>
    <clipPath id="hill-clip">
      <path d="M0 52 C10 42 22 35 36 32 C46 30 55 31 64 34 L64 64 L0 64 Z"/>
    </clipPath>
  </defs>

  <rect width="64" height="64" rx="14" fill="url(#ground)"/>

  <path d="M0 52 C10 42 22 35 36 32 C46 30 55 31 64 34 L64 64 L0 64 Z" fill="#edf8e8" opacity="0.88"/>

  <g fill="#5f4a31" clip-path="url(#hill-clip)">
    <circle cx="7" cy="53.4" r="1.75"/><circle cx="14.5" cy="51.6" r="1.75"/><circle cx="22" cy="50" r="1.75"/><circle cx="29.5" cy="48.9" r="1.75"/><circle cx="37" cy="48.4" r="1.75"/><circle cx="44.5" cy="48.7" r="1.75"/><circle cx="52" cy="49.8" r="1.75"/><circle cx="59" cy="51.5" r="1.75"/>
    <circle cx="8.5" cy="48" r="1.6"/><circle cx="16" cy="46.3" r="1.6"/><circle cx="23.5" cy="44.9" r="1.6"/><circle cx="31" cy="43.9" r="1.6"/><circle cx="38.5" cy="43.5" r="1.6"/><circle cx="46" cy="43.9" r="1.6"/><circle cx="53.3" cy="44.9" r="1.6"/><circle cx="60" cy="46.3" r="1.6"/>
    <circle cx="10.3" cy="42.9" r="1.5"/><circle cx="17.8" cy="41.5" r="1.5"/><circle cx="25.2" cy="40.4" r="1.5"/><circle cx="32.7" cy="39.6" r="1.5"/><circle cx="40.2" cy="39.4" r="1.5"/><circle cx="47.5" cy="39.8" r="1.5"/><circle cx="54.6" cy="40.8" r="1.5"/><circle cx="61" cy="42.1" r="1.5"/>
    <circle cx="12" cy="38.4" r="1.35"/><circle cx="19.2" cy="37.2" r="1.35"/><circle cx="26.6" cy="36.3" r="1.35"/><circle cx="34" cy="35.7" r="1.35"/><circle cx="41.3" cy="35.7" r="1.35"/><circle cx="48.4" cy="36.1" r="1.35"/><circle cx="55.2" cy="37" r="1.35"/>
  </g>

  <polygon points="48,-10 39,35 53,35" fill="#8fd1ff" opacity="0.55"/>
</svg>
